<?xml version="1.0" encoding="UTF-8"?>
<svg viewBox="0 0 50 50" version="1.1" xmlns="http://www.w3.org/2000/svg" xmlns:xlink="http://www.w3.org/1999/xlink">
    <defs>
        <circle id="path-1" cx="25" cy="25" r="25"/>
    </defs>
    <g id="Page-1" stroke="none" stroke-width="1" fill="none" fill-rule="evenodd">
        <g id="Artboard" transform="translate(-50.000000, -15.000000)">
            <g id="logo-B.log" transform="translate(50.000000, 15.000000)">
                <mask id="mask-2" fill="white">
                    <use xlink:href="#path-1"/>
                </mask>
                <use id="Mask" fill="#A3FFEA" xlink:href="#path-1"/>
                <path d="M17.9187163,3.27830337 L17.9187163,-2.5 L33.5,-2.5 L33.5,3.29950816 C33.5,5.91829886 31.945111,7.68889824 29.6127774,7.68889824 C27.9931014,7.68889824 26.4814037,6.52263518 26.2114577,5.04890276 L26.125075,5.04890276 C25.855129,7.12697149 24.365027,8.46287282 22.2918416,8.46287282 C19.5491902,8.46287282 17.9187163,6.53323757 17.9187163,3.27830337 Z M31.7831434,-0.591569528 L26.7837433,-0.591569528 L26.7837433,2.27107618 C26.7837433,4.52938557 27.7015597,5.75926299 29.3860228,5.75926299 C30.930114,5.75926299 31.7831434,4.72022862 31.7831434,2.86481011 L31.7831434,-0.591569528 Z M19.6355729,-0.591569528 L19.6355729,2.9920388 C19.6355729,5.29275776 20.5857828,6.50143039 22.3890222,6.50143039 C24.1922615,6.50143039 25.110078,5.2503482 25.110078,2.81179815 L25.110078,-0.591569528 L19.6355729,-0.591569528 Z M17.8107379,12.0470632 C17.8107379,11.3685102 18.3506299,10.8383906 19.0416917,10.8383906 C19.7327534,10.8383906 20.2726455,11.3685102 20.2726455,12.0470632 C20.2726455,12.7256163 19.7327534,13.2557359 19.0416917,13.2557359 C18.3506299,13.2557359 17.8107379,12.7256163 17.8107379,12.0470632 Z M17.9187163,15.6918388 L26.822307,15.6918388 L26.822307,16.7460194 L17.9187163,16.7460194 L17.9187163,15.6918388 Z M17.8076528,20.9300023 C17.8076528,19.1851515 19.084883,18.0098007 21.1272174,18.0098007 C23.175722,18.0098007 24.4467821,19.1851515 24.4467821,20.9300023 C24.4467821,22.6687945 23.175722,23.8441453 21.1272174,23.8441453 C19.084883,23.8441453 17.8076528,22.6687945 17.8076528,20.9300023 Z M18.7516925,20.9300023 C18.7516925,22.044768 19.6155198,22.7717891 21.1272174,22.7717891 C22.6389151,22.7717891 23.5027423,22.044768 23.5027423,20.9300023 C23.5027423,19.8152365 22.6389151,19.0821569 21.1272174,19.0821569 C19.6155198,19.0821569 18.7516925,19.8152365 18.7516925,20.9300023 Z M18.8133945,27.6161495 C18.8133945,28.7127397 19.7389236,29.4458194 21.1518982,29.4458194 C22.5648727,29.4458194 23.5027423,28.7127397 23.5027423,27.6161495 C23.5027423,26.5316763 22.5895535,25.8228307 21.1518982,25.8228307 C19.7142429,25.8228307 18.8133945,26.5316763 18.8133945,27.6161495 Z M15.5,27.6525006 C15.5,26.2651019 16.2959551,25.1685117 17.3880795,24.9928149 L17.3880795,26.0772881 C16.801911,26.2832774 16.4131888,26.9073039 16.4131888,27.6949101 C16.4131888,28.7854418 17.054889,29.4458194 18.0112692,29.4458194 L19.0231811,29.4458194 L19.0231811,29.4215853 C18.3259491,29.0338407 17.8693547,28.2886441 17.8693547,27.4041017 C17.8693547,25.7985967 19.1589254,24.744416 21.1518982,24.744416 C23.1633816,24.744416 24.4467821,25.7985967 24.4467821,27.4283357 C24.4467821,28.3189366 24.0025281,29.0580748 23.2559345,29.4761119 L23.2559345,29.4942874 L24.3357186,29.4942874 L24.3357186,30.5 L18.0482903,30.5 C16.5180821,30.5 15.5,29.3912928 15.5,27.6525006 Z" id="Shape" fill="#000000" fill-rule="nonzero" mask="url(#mask-2)"/>
            </g>
        </g>
    </g>
</svg>
